<svg viewBox="0 0 180 46.436" height="46.436" width="180" xmlns="http://www.w3.org/2000/svg">
  <g transform="translate(0 -0.781)" id="Group">
    <path fill="#fbf6f1" d="M145.778,2.383,156.9,28.129,168.931,2.383H180L159.18,46.02H148.533l6.282-13.47c-4.009-.1-7.391-1.937-8.795-4.994-2.9-6.319-11.851-25.17-11.851-25.17h11.609Z" id="Vector"></path>
    <path fill="#fbf6f1" d="M38.144,24.659c-4.784-3.467-11.565-4.3-15.058-4.919-7.5-1.334-10.318-2.341-10.318-5.694s4.844-4.689,8.747-4.689,9.108,1,9.108,6.578H41.981c0-5.694-1.988-9.083-5.861-11.545C32.38,2.013,27.579.781,21.822.781s-10.691,1.242-14.3,3.5c-3.987,2.5-6.1,6.093-6.1,10.4,0,5.27,3.612,9.5,9.514,11.419,5.266,1.712,11.6,2.68,13.884,3.295,2.936.792,6.447,1.808,6.447,4.493,0,2.876-3.767,4.922-8.846,4.922-7.878,0-11.136-4.021-11.136-8.752H0c0,6.1,2.409,10.088,6.97,13.068,4.043,2.641,9.558,4.094,15.535,4.094,5.517,0,10.536-1.259,14.131-3.542,3.949-2.508,6.033-6.069,6.033-10.3A10.553,10.553,0,0,0,38.144,24.659Z" id="Vector_2"></path>
    <path fill="#fbf6f1" d="M90.366,46.019v-8.13c-2.143,0-3.837-.579-3.837-3.59V17c0-5.137-1.695-9.161-5.035-11.967C78.13,2.212,73.049.781,66.4.781c-6.246,0-10.906,1.3-14.349,3.752-3.273,2.331-3.784,5.423-3,7.386,2.13,5.355,14.247,6.549,18.539,6.9-11.223,1.489-15.533,3.423-18.506,5.827a11.448,11.448,0,0,0-4.416,9.308,11.583,11.583,0,0,0,4.016,9.161c2.789,2.411,6.716,3.566,12.005,3.566,6.757,0,12.339-1.971,16.271-6.256C78.644,44.728,82.667,47.164,90.366,46.019ZM75.271,27.583a10.021,10.021,0,0,1-3.07,7.672c-2.031,1.891-4.944,2.849-8.66,2.849-3.965,0-6.892-1.607-7.447-4.994-.678-4.125,4.273-7.311,8.093-9.161,3.251-1.574,5.975-2.811,5.931-5.621-2.113-.22-11.09-1.407-11.766-4.055-.38-1.491,1.169-4.316,8.047-4.316,5.28,0,8.873,2.341,8.873,5.592C75.271,18.558,75.271,24.574,75.271,27.583Z" id="Vector_3"></path>
    <path fill="#fbf6f1" d="M132.475,5.363V2.383H93.406v8.425h25.827L92.544,37.886v8.129h41.369V37.59H105.8l23.042-23.381A12.585,12.585,0,0,0,132.475,5.363Z" id="Vector_4"></path>
  </g>
</svg>
